<?xml version="1.0" encoding="UTF-8" standalone="no"?><!DOCTYPE svg PUBLIC "-//W3C//DTD SVG 1.1//EN" "http://www.w3.org/Graphics/SVG/1.1/DTD/svg11.dtd"><svg width="100%" height="100%" viewBox="0 0 68 68" version="1.1" xmlns="http://www.w3.org/2000/svg" xmlns:xlink="http://www.w3.org/1999/xlink" xml:space="preserve" style="fill-rule:evenodd;clip-rule:evenodd;stroke-linejoin:round;stroke-miterlimit:1.41421;"><g><g><path d="M22.439,24.606l-3.949,0l-6.246,-10.875l-0.071,0.024l0,10.851l-3.972,0l0,-17.062l3.972,0l6.247,10.875l0.07,-0.024l0,-10.851l3.949,0l0,17.062Z" style="fill-rule:nonzero;"/><path d="M20.57,53.739l-6.832,0l0,6.867l-3.973,0l0,-17.062l12,0l0,3.046l-8.027,0l0,4.102l6.832,0l0,3.047Z" style="fill-rule:nonzero;"/></g><g><path d="M56.988,17.305l-6.691,0l0,4.254l7.887,0l0,3.047l-11.86,0l0,-17.062l11.883,0l0,3.046l-7.91,0l0,3.668l6.691,0l0,3.047Z" style="fill-rule:nonzero;"/><path d="M58.301,46.59l-4.5,0l0,14.016l-3.973,0l0,-14.016l-4.465,0l0,-3.046l12.938,0l0,3.046Z" style="fill-rule:nonzero;"/></g></g></svg>