<?xml version="1.0" encoding="UTF-8" standalone="no"?>
<!DOCTYPE svg PUBLIC "-//W3C//DTD SVG 1.1//EN" "http://www.w3.org/Graphics/SVG/1.1/DTD/svg11.dtd">
<svg width="100%" height="100%" viewBox="0 0 81 41" version="1.1" xmlns="http://www.w3.org/2000/svg" xmlns:xlink="http://www.w3.org/1999/xlink" xml:space="preserve" xmlns:serif="http://www.serif.com/" style="fill-rule:evenodd;clip-rule:evenodd;stroke-linejoin:round;stroke-miterlimit:1.41421;">
    <g id="g3257">
        <path id="polyline3251" d="M40.268,0L30.201,40.267L10.067,20.133L0,40.266" style="fill:rgb(9,139,255);fill-opacity:0.698039;fill-rule:nonzero;"/>
        <path id="polyline3253" d="M40.268,0L30.201,20.133L10.067,10.066L0,40.267" style="fill:rgb(0,255,239);fill-opacity:0.698039;fill-rule:nonzero;"/>
        <path id="polyline3255" d="M40.268,0L20.134,40.267L10.067,30.2L0,40.266" style="fill:rgb(13,255,126);fill-opacity:0.698039;fill-rule:nonzero;"/>
        <g transform="matrix(1,0,0,1,8.09537,-2.30799)">
            <path d="M44.73,28.181L43.68,28.181L41.68,23.597L40.885,28.181L39.799,28.181L40.911,21.783L41.962,21.783L43.961,26.384L44.761,21.783L45.842,21.783L44.73,28.181Z" style="fill:rgb(9,139,255);fill-opacity:0.701961;fill-rule:nonzero;"/>
            <path d="M50.468,25.325L47.919,25.325L47.576,27.293L50.555,27.293L50.402,28.181L46.337,28.181L47.444,21.783L51.483,21.783L51.325,22.679L48.376,22.679L48.068,24.446L50.621,24.446L50.468,25.325Z" style="fill:rgb(9,139,255);fill-opacity:0.701961;fill-rule:nonzero;"/>
            <path d="M55.664,25.47L53.168,25.47L52.698,28.181L51.613,28.181L52.72,21.783L56.675,21.783L56.517,22.679L53.652,22.679L53.322,24.582L55.823,24.582L55.664,25.47Z" style="fill:rgb(9,139,255);fill-opacity:0.701961;fill-rule:nonzero;"/>
            <path d="M62.281,22.679L60.347,22.679L59.394,28.181L58.313,28.181L59.271,22.679L57.35,22.679L57.508,21.783L62.439,21.783L62.281,22.679Z" style="fill:rgb(9,139,255);fill-opacity:0.701961;fill-rule:nonzero;"/>
            <path d="M61.383,27.667C61.383,27.488 61.439,27.342 61.552,27.23C61.665,27.117 61.809,27.057 61.985,27.052C62.157,27.046 62.302,27.098 62.417,27.208C62.533,27.317 62.591,27.459 62.591,27.632C62.591,27.802 62.535,27.943 62.424,28.056C62.313,28.169 62.168,28.228 61.989,28.234C61.816,28.24 61.672,28.188 61.556,28.08C61.44,27.972 61.383,27.834 61.383,27.667Z" style="fill:rgb(9,139,255);fill-opacity:0.701961;fill-rule:nonzero;"/>
            <path d="M65.265,28.181L64.184,28.181L65.296,21.783L66.377,21.783L65.265,28.181Z" style="fill:rgb(9,139,255);fill-opacity:0.701961;fill-rule:nonzero;"/>
            <path d="M69.39,28.269C68.974,28.26 68.609,28.16 68.294,27.97C67.979,27.78 67.733,27.504 67.558,27.142C67.382,26.78 67.282,26.369 67.259,25.909C67.238,25.543 67.271,25.115 67.358,24.626C67.444,24.137 67.598,23.691 67.819,23.288C68.04,22.885 68.305,22.556 68.612,22.301C69.119,21.885 69.705,21.683 70.37,21.695C71.003,21.706 71.508,21.925 71.884,22.349C72.26,22.774 72.466,23.348 72.501,24.072C72.519,24.435 72.486,24.852 72.403,25.322C72.319,25.793 72.175,26.225 71.972,26.619C71.768,27.013 71.516,27.342 71.214,27.605C70.692,28.062 70.084,28.284 69.39,28.269ZM71.39,24.81L71.429,24.345C71.447,24.025 71.419,23.73 71.346,23.459C71.272,23.188 71.149,22.982 70.974,22.839C70.8,22.697 70.58,22.622 70.313,22.613C69.944,22.601 69.616,22.705 69.331,22.925C69.045,23.145 68.814,23.479 68.636,23.927C68.459,24.375 68.356,24.938 68.327,25.615C68.297,26.151 68.379,26.573 68.573,26.88C68.766,27.188 69.056,27.347 69.443,27.359C69.95,27.374 70.368,27.183 70.697,26.788C71.027,26.392 71.243,25.836 71.346,25.118L71.39,24.81Z" style="fill:rgb(9,139,255);fill-opacity:0.701961;fill-rule:nonzero;"/>
        </g>
    </g>
</svg>
