<?xml version="1.0" encoding="UTF-8" standalone="no"?><!DOCTYPE svg PUBLIC "-//W3C//DTD SVG 1.1//EN" "http://www.w3.org/Graphics/SVG/1.1/DTD/svg11.dtd"><svg width="100%" height="100%" viewBox="0 0 71 41" version="1.1" xmlns="http://www.w3.org/2000/svg" xmlns:xlink="http://www.w3.org/1999/xlink" xml:space="preserve" style="fill-rule:evenodd;clip-rule:evenodd;stroke-linejoin:round;stroke-miterlimit:1.41421;"><g id="g3257"><path id="polyline3251" d="M40.268,0l-10.067,40.267l-20.134,-20.134l-10.067,20.133" style="fill:#098bff;fill-opacity:0.7;fill-rule:nonzero;"/><path id="polyline3253" d="M40.268,0l-10.067,20.133l-20.134,-10.067l-10.067,30.201" style="fill:#00ffef;fill-opacity:0.7;fill-rule:nonzero;"/><path id="polyline3255" d="M40.268,0l-20.134,40.267l-10.067,-10.067l-10.067,10.066" style="fill:#0dff7e;fill-opacity:0.7;fill-rule:nonzero;"/></g><g id="text3263"><path d="M52.508,25.839l-1.05,0l-1.635,-4.579l-0.026,0l-0.914,4.579l-1.05,0l1.278,-6.398l1.051,0l1.634,4.574l0.027,0l0.914,-4.574l1.05,0l-1.279,6.398Z" style="fill:#098bff;fill-opacity:0.7;fill-rule:nonzero;"/><path d="M58.483,22.961l-2.576,0l-0.404,2.026l2.993,0l-0.172,0.852l-4.043,0l1.279,-6.398l4.012,0l-0.171,0.857l-2.962,0l-0.36,1.806l2.575,0l-0.171,0.857Z" style="fill:#098bff;fill-opacity:0.7;fill-rule:nonzero;"/><path d="M63.802,23.11l-2.575,0l-0.545,2.729l-1.051,0l1.279,-6.398l4.043,0l-0.171,0.857l-2.993,0l-0.391,1.955l2.575,0l-0.171,0.857Z" style="fill:#098bff;fill-opacity:0.7;fill-rule:nonzero;"/><path d="M70.255,20.298l-1.771,0l-1.108,5.541l-1.05,0l1.108,-5.541l-1.772,0l0.172,-0.857l4.592,0l-0.171,0.857Z" style="fill:#098bff;fill-opacity:0.7;fill-rule:nonzero;"/></g></svg>